<svg xmlns="http://www.w3.org/2000/svg" viewBox="0 0 512 512">
  <rect width="512" height="512" rx="96" fill="#231F20"/>
  <g transform="translate(105.35 114.1) scale(2.7)" fill="#ffffff">
    <path d="M12.38 0C5.55 0 0 5.55 0 12.37C0 19.19 5.55 24.74 12.38 24.74C19.21 24.74 24.75 19.19 24.75 12.37C24.75 5.55 19.2 0 12.38 0ZM12.38 17.51C9.54 17.51 7.24 15.2 7.24 12.37C7.24 9.54 9.54 7.24 12.38 7.24C15.22 7.24 17.51 9.55 17.51 12.37C17.51 15.19 15.2 17.51 12.38 17.51Z"/>
    <path d="M64.19 29.27C66.38 29.21 66.89 29.21 68.93 29.2L79.58 29.16C103.3 29.49 110.95 4.87001 111.61 3.14001C95.38 4.75001 69.43 3.93001 69.43 3.93001C42.55 3.38001 19.63 25.41 19.08 52.29V53.46C21.24 50.2 35.47 29.31 64.19 29.27Z"/>
    <path d="M78.28 76.94C75.37 78.23 72.17 78.88 68.89 78.88C55.88 78.88 45.3 68.29 45.3 55.28C45.3 47.05 49.54 39.07 57.66 34.32C60.65 32.76 63.34 31.76 65.94 31.09C35.37 32.05 21.69 50.83 19.1 54.81C19.55 81.92 41.71 105.1 68.9 105.1C83.82 105.1 97.82 98.5 107.32 86.99C107.32 86.99 94.88 69.6 78.28 76.95"/>
  </g>
</svg>
